<mxfile host="app.diagrams.net" modified="2023-09-10T02:09:33.504Z" agent="Mozilla/5.0 (Windows NT 10.0; Win64; x64) AppleWebKit/537.36 (KHTML, like Gecko) Chrome/116.0.0.0 Safari/537.36" etag="bMNZjcTku9lJvL27Gz0R" version="21.7.4" type="github">
  <diagram name="Page-1" id="SjtMiZsD_BO0Mgj-9Opu">
    <mxGraphModel dx="1114" dy="705" grid="1" gridSize="10" guides="1" tooltips="1" connect="1" arrows="1" fold="1" page="1" pageScale="1" pageWidth="827" pageHeight="1169" math="0" shadow="0">
      <root>
        <mxCell id="0" />
        <mxCell id="1" parent="0" />
        <mxCell id="zDtXWsLHAUSplq666p_f-1" value="" style="ellipse;fillColor=strokeColor;html=1;" parent="1" vertex="1">
          <mxGeometry x="180" y="30" width="30" height="30" as="geometry" />
        </mxCell>
        <mxCell id="zDtXWsLHAUSplq666p_f-2" value="" style="endArrow=open;startArrow=none;endFill=0;startFill=0;endSize=8;html=1;verticalAlign=bottom;labelBackgroundColor=none;strokeWidth=1;rounded=0;exitX=0.5;exitY=1;exitDx=0;exitDy=0;" parent="1" source="zDtXWsLHAUSplq666p_f-1" edge="1">
          <mxGeometry width="160" relative="1" as="geometry">
            <mxPoint x="194.5" y="70" as="sourcePoint" />
            <mxPoint x="195" y="130" as="targetPoint" />
          </mxGeometry>
        </mxCell>
        <mxCell id="zDtXWsLHAUSplq666p_f-3" value="Alice writes letter" style="html=1;align=center;verticalAlign=top;rounded=1;absoluteArcSize=1;arcSize=10;dashed=0;whiteSpace=wrap;" parent="1" vertex="1">
          <mxGeometry x="125" y="130" width="140" height="40" as="geometry" />
        </mxCell>
        <mxCell id="zDtXWsLHAUSplq666p_f-4" value="" style="endArrow=open;startArrow=none;endFill=0;startFill=0;endSize=8;html=1;verticalAlign=bottom;labelBackgroundColor=none;strokeWidth=1;rounded=0;exitX=0.5;exitY=1;exitDx=0;exitDy=0;" parent="1" edge="1">
          <mxGeometry width="160" relative="1" as="geometry">
            <mxPoint x="194.71" y="170" as="sourcePoint" />
            <mxPoint x="194.71" y="240" as="targetPoint" />
          </mxGeometry>
        </mxCell>
        <mxCell id="zDtXWsLHAUSplq666p_f-5" value="Alice delivers letter in Bob&#39;s letterbox" style="html=1;align=center;verticalAlign=top;rounded=1;absoluteArcSize=1;arcSize=10;dashed=0;whiteSpace=wrap;" parent="1" vertex="1">
          <mxGeometry x="125" y="240" width="140" height="40" as="geometry" />
        </mxCell>
        <mxCell id="zDtXWsLHAUSplq666p_f-6" value="" style="endArrow=open;startArrow=none;endFill=0;startFill=0;endSize=8;html=1;verticalAlign=bottom;labelBackgroundColor=none;strokeWidth=1;rounded=0;exitX=0.5;exitY=1;exitDx=0;exitDy=0;" parent="1" edge="1">
          <mxGeometry width="160" relative="1" as="geometry">
            <mxPoint x="194.71" y="280" as="sourcePoint" />
            <mxPoint x="194.71" y="350" as="targetPoint" />
          </mxGeometry>
        </mxCell>
        <mxCell id="zDtXWsLHAUSplq666p_f-7" value="" style="ellipse;html=1;shape=endState;fillColor=strokeColor;" parent="1" vertex="1">
          <mxGeometry x="180" y="350" width="30" height="30" as="geometry" />
        </mxCell>
      </root>
    </mxGraphModel>
  </diagram>
</mxfile>
